<svg width="19" height="22" viewBox="0 0 19 22" fill="none" xmlns="http://www.w3.org/2000/svg">
<path d="M15.4568 11.6258C15.447 9.82322 16.2623 8.4627 17.9126 7.46073C16.9893 6.13951 15.5944 5.41259 13.7525 5.27016C12.0089 5.13263 10.1032 6.28686 9.40573 6.28686C8.66899 6.28686 6.97939 5.31927 5.65326 5.31927C2.91258 5.36348 0 7.50494 0 11.8615C0 13.1484 0.235757 14.4778 0.707272 15.8498C1.33596 17.6523 3.60512 22.0728 5.97252 21.9991C7.21024 21.9696 8.08451 21.1199 9.69551 21.1199C11.2574 21.1199 12.0678 21.9991 13.448 21.9991C15.835 21.9647 17.8881 17.947 18.4873 16.1395C15.2849 14.6317 15.4568 11.7191 15.4568 11.6258ZM12.6769 3.56092C14.0177 1.96955 13.8949 0.52063 13.8556 0C12.6719 0.0687625 11.3016 0.805504 10.5207 1.71415C9.66113 2.68665 9.15524 3.88999 9.26329 5.2456C10.5452 5.34383 11.7142 4.68567 12.6769 3.56092Z" fill="white" fill-opacity="0.6"/>
</svg>
