<?xml version="1.0" encoding="UTF-8"?>
<svg version="1.1" xmlns="http://www.w3.org/2000/svg" width="1024" height="1024">
<path d="M0 0 C1.27665527 0.14453613 2.55331055 0.28907227 3.86865234 0.43798828 C95.16950264 11.12150102 182.13260228 48.20225194 283.46069336 128.69604492 C285.06016573 130.14727276 286.66629759 131.59122683 288.28173828 133.0246582 C294.63134238 138.66545395 300.69582688 144.5446814 306.6875 150.5625 C307.58533203 151.45646484 308.48316406 152.35042969 309.40820312 153.27148438 C314.48182827 158.3525434 319.34709249 163.53248634 324 169 C324.97305148 170.11797744 325.9469782 171.23519384 326.921875 172.3515625 C352.68991105 202.09670213 374.28891451 234.41565488 393 269 C393.60682617 270.11375 394.21365234 271.2275 394.83886719 272.375 C399.45825151 280.90104394 403.76466464 289.53098018 407.75 298.375 C408.04547729 299.0299646 408.34095459 299.6849292 408.64538574 300.35974121 C420.63433739 327.07729168 429.574562 354.7005701 437 383 C437.25813477 383.98002991 437.25813477 383.98002991 437.52148438 384.9798584 C442.70875934 404.76385474 446.24535139 424.64446302 448.74285889 444.9208374 C448.98931991 446.91364412 449.24470302 448.90534128 449.50048828 450.89697266 C454.38686673 490.32656009 454.19385357 531.62298918 449 571 C448.82593675 572.38320994 448.65261845 573.76651379 448.47998047 575.14990234 C442.13397897 625.46585953 428.22875873 674.91423769 407 721 C406.54931152 721.98500488 406.09862305 722.97000977 405.63427734 723.98486328 C382.45320472 774.35431048 351.29436523 819.50473177 313.66015625 860.1171875 C311.01148929 862.98754905 308.41291036 865.89845236 305.8125 868.8125 C302.35365488 872.62708077 298.79012856 876.08753137 294.8515625 879.3984375 C293.0256348 880.97782644 291.36194426 882.6370697 289.6875 884.375 C285.98504124 888.1447762 281.91523457 891.38816058 277.80078125 894.6953125 C275.23810398 896.80407064 272.80426132 898.99041451 270.375 901.25 C263.99139879 907.05786503 257.08591214 912.17224667 250.19042969 917.34912109 C248.09924185 918.92520359 246.02066317 920.5164283 243.9453125 922.11328125 C224.52931143 936.98378633 203.47738498 949.36728886 182 961 C181.12843262 961.4734082 180.25686523 961.94681641 179.35888672 962.43457031 C145.83856889 980.54881376 110.64550762 993.78836837 74 1004 C72.85917969 1004.31952637 71.71835937 1004.63905273 70.54296875 1004.96826172 C41.96860607 1012.84928188 12.50292912 1017.38104139 -17 1020 C-17.95253662 1020.0942627 -18.90507324 1020.18852539 -19.88647461 1020.28564453 C-32.82588381 1021.41291481 -45.83477602 1021.24393814 -58.8125 1021.25 C-60.75709106 1021.25101212 -60.75709106 1021.25101212 -62.7409668 1021.25204468 C-82.69680792 1021.2355576 -102.20421249 1020.62221274 -122 1018 C-123.38173367 1017.82584683 -124.76357322 1017.65253199 -126.14550781 1017.47998047 C-176.46346871 1011.13331865 -225.91215065 997.2297201 -272 976 C-272.98500488 975.54931152 -273.97000977 975.09862305 -274.98486328 974.63427734 C-325.34171817 951.45899996 -370.50776071 920.29155841 -411.1171875 882.66015625 C-413.98754905 880.01148929 -416.89845236 877.41291036 -419.8125 874.8125 C-423.62708077 871.35365488 -427.08753137 867.79012856 -430.3984375 863.8515625 C-431.97782644 862.0256348 -433.6370697 860.36194426 -435.375 858.6875 C-439.1447762 854.98504124 -442.38816058 850.91523457 -445.6953125 846.80078125 C-447.80407064 844.23810398 -449.99041451 841.80426132 -452.25 839.375 C-458.05786503 832.99139879 -463.17224667 826.08591214 -468.34912109 819.19042969 C-469.92520359 817.09924185 -471.5164283 815.02066317 -473.11328125 812.9453125 C-487.98378633 793.52931143 -500.36728886 772.47738498 -512 751 C-512.7101123 749.69264893 -512.7101123 749.69264893 -513.43457031 748.35888672 C-531.54881376 714.83856889 -544.78836837 679.64550762 -555 643 C-555.31952637 641.85917969 -555.63905273 640.71835937 -555.96826172 639.54296875 C-563.84928188 610.96860607 -568.38104139 581.50292912 -571 552 C-571.0942627 551.04746338 -571.18852539 550.09492676 -571.28564453 549.11352539 C-572.41291481 536.17411619 -572.24393814 523.16522398 -572.25 510.1875 C-572.25067474 508.89110596 -572.25134949 507.59471191 -572.25204468 506.2590332 C-572.23555708 486.3025649 -571.61926915 466.79656404 -569 447 C-568.82578067 445.61290315 -568.6524685 444.22569211 -568.47998047 442.83837891 C-556.92168149 350.78534404 -519.24178574 260.26355978 -458.44873047 186.75292969 C-456.38005961 184.24988676 -454.35017785 181.71579624 -452.3125 179.1875 C-448.54395302 174.58226644 -444.59211696 170.17126466 -440.5546875 165.80078125 C-438.62070712 163.6805 -436.74532038 161.53745894 -434.87890625 159.359375 C-430.63377255 154.49363117 -426.08577353 149.93528417 -421.51196289 145.3815918 C-420.06475615 143.93974779 -418.62297974 142.49262884 -417.18164062 141.04492188 C-411.95715368 135.81634888 -406.62283377 130.79685524 -401 126 C-399.84311919 124.97874793 -398.68813573 123.95534208 -397.53515625 122.9296875 C-389.01770665 115.41371746 -380.21042487 108.39773864 -371.11865234 101.59082031 C-369.03570709 100.02681118 -366.96390459 98.44909523 -364.89453125 96.8671875 C-352.13590676 87.14618375 -338.93504941 78.30846414 -325.08447266 70.22021484 C-323.65671014 69.38442695 -322.23204292 68.54333522 -320.81005859 67.69775391 C-257.12576055 29.85518292 -186.51101476 7.61716048 -113.06018066 -0.76434326 C-111.2280693 -0.97391196 -109.39669151 -1.18987148 -107.56542969 -1.40673828 C-72.12434392 -5.45145931 -35.37933827 -4.07237118 0 0 Z " fill="#EFEFEF" transform="translate(572,3)"/>
<path d="M0 0 C12.17461195 7.62564841 19.79182728 19.494146 23.6328125 33.26953125 C30.947391 71.06152015 19.57363564 110.40333741 7.12207031 145.79980469 C6.15049648 148.57077723 5.20399985 151.34787682 4.2734375 154.1328125 C1.44498952 162.5315807 -1.9170195 170.58406525 -5.80810547 178.546875 C-7.24419254 181.50259046 -8.6548696 184.46998245 -10.06640625 187.4375 C-27.48244423 223.94697086 -46.23478085 260.13880095 -70 293 C-70.77698705 294.0943815 -71.55295108 295.18948973 -72.328125 296.28515625 C-77.76144522 303.95274885 -83.30787143 311.52168364 -89 319 C-89.54785156 319.72058594 -90.09570312 320.44117188 -90.66015625 321.18359375 C-99.35130742 332.47995485 -108.3651691 343.49614514 -118 354 C-119.82659765 356.05584675 -121.63914027 358.12027603 -123.42578125 360.2109375 C-125 362 -125 362 -126.54296875 363.4765625 C-128.5175152 365.45663989 -129.8924446 367.21221139 -130.27612305 370.02246094 C-130.23134357 377.28736171 -129.18529795 384.23843332 -127.875 391.375 C-127.65054199 392.60508789 -127.42608398 393.83517578 -127.19482422 395.10253906 C-123.38591535 415.20205954 -117.18988145 444.71286223 -99.8359375 457.78515625 C-99.23007812 458.18605469 -98.62421875 458.58695313 -98 459 C-97.41476562 459.41121094 -96.82953125 459.82242187 -96.2265625 460.24609375 C-87.67138235 465.13235277 -75.81868749 464.02194292 -66.44140625 462.375 C-41.58771569 455.42465457 -20.43570709 437.57092571 -1.75561523 420.47119141 C0 419 0 419 1.97241211 417.86865234 C4.29262417 416.41282148 5.53282403 415.33442001 7 413 C7.81197264 408.19694061 7.80986179 403.51193239 7.72488403 398.65130615 C7.66128699 394.56624766 7.72829702 390.48324199 7.7890625 386.3984375 C7.79935989 385.58460602 7.80965729 384.77077454 7.82026672 383.93228149 C8.10603176 366.72480962 12.07172995 350.0058984 15.9375 333.3125 C16.10049591 332.60615417 16.26349182 331.89980835 16.431427 331.17205811 C18.74782675 321.23351094 21.61439191 311.62877502 25 302 C25.34554932 301.00299072 25.69109863 300.00598145 26.04711914 298.97875977 C40.74172534 257.11710548 65.18524328 205.50845845 107 184.4921875 C117.08150601 179.7999972 129.07837649 177.30778741 140.07763672 180.62695312 C151.05345366 185.25014329 159.45964988 193.04750182 164.30078125 203.921875 C171.5615969 223.46006983 169.11958512 245.47513477 163 265 C162.65163086 266.12100098 162.30326172 267.24200195 161.94433594 268.39697266 C154.96761742 290.57361133 154.96761742 290.57361133 150.9128418 298.24145508 C150.05272504 299.89842779 149.31454267 301.61707336 148.5859375 303.3359375 C138.80379096 325.93606916 125.30001535 347.01947872 111 367 C110.4519873 367.76586426 109.90397461 368.53172852 109.33935547 369.32080078 C102.69497145 378.56137169 95.89604312 387.57229688 88.43359375 396.16796875 C86.27024222 398.68551267 84.21882656 401.25102426 82.1875 403.875 C78.03464155 409.13528736 73.44911511 413.97037333 68.8347168 418.82373047 C63.2961169 423.95375543 63.2961169 423.95375543 60.9375 430.625 C64.78787234 442.85559448 74.05757885 451.81171642 85 458 C88.90748997 459.66316545 92.88861777 460.97596532 96.9375 462.25 C97.95779297 462.58773438 98.97808594 462.92546875 100.02929688 463.2734375 C126.62843301 471.89651418 150.32808778 468.51809775 175 456 C184.63501116 450.8704385 193.42783473 444.75345977 202 438 C202.83917969 437.35417969 203.67835938 436.70835937 204.54296875 436.04296875 C210.36195064 431.50064743 215.79156829 426.60958936 221.19140625 421.5859375 C223.4407271 419.51493555 225.7207575 417.52592419 228.0625 415.5625 C249.17606914 397.15356162 272.099942 367.700174 281 341 C280.22398437 340.731875 279.44796875 340.46375 278.6484375 340.1875 C253.98379058 331.23994312 233.04374808 315.31853563 221.625 291.3125 C221.29113281 290.6119751 220.95726562 289.9114502 220.61328125 289.18969727 C214.1883111 275.13507506 214.11407883 259.39152121 218.60546875 244.6953125 C227.9699309 219.88079936 245.81578801 197.63961951 270 186 C284.25295316 180.05279772 301.70944687 176.27439168 316.61206055 182.09912109 C331.45541253 188.74217371 343.486086 199.98127247 350 215 C359.62868318 243.08622283 355.67611368 273.93237821 348 302 C363.87906926 301.46624977 379.80809841 298.49667624 394.9375 293.65869141 C396.46364362 293.17129374 397.992771 292.69321686 399.5234375 292.22021484 C428.30871211 283.29536867 458.20888925 271.46632624 481.375 251.6875 C481.91213623 251.23028564 482.44927246 250.77307129 483.00268555 250.30200195 C485.26781616 248.36561 487.52610162 246.42546015 489.74365234 244.43457031 C501.03186156 234.32786656 501.03186156 234.32786656 508.25 233.875 C514.71701971 234.50698452 519.23789391 237.78006918 524 242 C524.54527344 242.44730469 525.09054687 242.89460937 525.65234375 243.35546875 C530.50666593 249.27914886 529.50218708 257.84589229 529 265 C526.83635342 277.61770133 514.96613089 287.79576246 505.2644043 295.04370117 C502.4139399 297.03595586 499.53317367 298.96801651 496.625 300.875 C495.58714355 301.56045898 494.54928711 302.24591797 493.47998047 302.95214844 C486.82603439 307.29331246 480.07914471 311.40793847 473.125 315.25 C472.34850098 315.67909668 471.57200195 316.10819336 470.77197266 316.55029297 C465.33136029 319.47064755 459.76584459 321.80324752 454 324 C452.92202148 324.41652832 451.84404297 324.83305664 450.73339844 325.26220703 C442.17514191 328.56013391 433.59284031 331.79339098 425 335 C424.22430664 335.29084473 423.44861328 335.58168945 422.64941406 335.88134766 C409.47065041 340.7630012 395.66311343 343.81339527 382 347 C381.18192871 347.19932129 380.36385742 347.39864258 379.52099609 347.60400391 C363.40310442 351.45002564 346.45022367 350.27620059 330 350 C329.72325439 350.8751123 329.44650879 351.75022461 329.16137695 352.65185547 C323.04046451 370.29789148 312.59406176 386.73506281 302 402 C301.34136963 402.96486328 301.34136963 402.96486328 300.66943359 403.94921875 C290.66104355 418.60059582 279.31074055 432.23358738 267 445 C266.43635742 445.58555664 265.87271484 446.17111328 265.29199219 446.77441406 C258.73096611 453.55281262 252.09901078 460.02556252 244.6796875 465.875 C241.88311811 468.09268768 239.20021347 470.4162975 236.5 472.75 C225.19464682 482.17602174 212.80429381 490.27896727 199.91796875 497.3671875 C197.5497932 498.69235133 195.35419626 500.08728978 193.125 501.625 C183.83257947 507.47433419 172.39063324 510.29409022 161.9375 513.3125 C161.05747314 513.56700928 160.17744629 513.82151855 159.27075195 514.08374023 C140.90117448 519.23718842 120.47492544 518.42780571 102 514 C101.16678223 513.80712402 100.33356445 513.61424805 99.47509766 513.41552734 C80.82891562 509.07485141 62.16700548 503.1559088 47 491 C46.319375 490.45859375 45.63875 489.9171875 44.9375 489.359375 C37.0697316 482.78241236 29.45278167 474.72445068 24 466 C24 465.34 24 464.68 24 464 C20.23517656 466.07244567 17.06048625 468.52392146 13.78881836 471.27563477 C-17.65929929 497.72002474 -51.49167583 514.07690396 -93 512 C-106.83494697 510.55463637 -121.45573504 502.95611641 -132 494 C-133.4540625 492.9171875 -133.4540625 492.9171875 -134.9375 491.8125 C-147.84305302 480.75558025 -155.87276193 464.51632935 -162 449 C-162.62648437 447.53626953 -162.62648437 447.53626953 -163.265625 446.04296875 C-167.40150154 436.05665926 -169.83597512 425.60637622 -172.41503906 415.13208008 C-172.93381617 412.97018026 -172.93381617 412.97018026 -174 411 C-174.44988281 411.47308594 -174.89976562 411.94617188 -175.36328125 412.43359375 C-180.02436008 417.22544433 -184.94007035 421.47248764 -190.15234375 425.65234375 C-192.98957538 427.99140576 -195.68291058 430.43350417 -198.375 432.9375 C-203.73414766 437.85700047 -209.39060109 442.30061154 -215.20947266 446.65527344 C-217.09962521 448.07482078 -218.97800775 449.50902911 -220.85546875 450.9453125 C-241.82360203 466.92898572 -264.36534502 481.07234018 -287.6875 493.375 C-288.50492676 493.80868896 -289.32235352 494.24237793 -290.16455078 494.68920898 C-299.0798888 499.28226798 -307.81988344 502.68976084 -318 501 C-324.66169803 497.94536773 -328.16213199 492.74782568 -330.75 486.0625 C-331.61575473 478.92002344 -331.21120919 473.94878547 -327 468 C-321.21401793 461.50006641 -313.24524486 457.05937323 -306.02197266 452.33251953 C-288.19732096 440.5857254 -271.00783065 427.89038532 -254 415 C-253.16807129 414.37279053 -253.16807129 414.37279053 -252.31933594 413.73291016 C-239.07062964 403.73806039 -226.21815666 393.23385683 -214 382 C-212.45911963 380.62411891 -210.91741945 379.24915551 -209.375 377.875 C-204.78236084 373.74162475 -200.26065039 369.53486413 -195.75 365.3125 C-194.73945557 364.36769775 -194.73945557 364.36769775 -193.70849609 363.40380859 C-192.73130615 362.48656006 -192.73130615 362.48656006 -191.734375 361.55078125 C-191.15913086 361.01106689 -190.58388672 360.47135254 -189.99121094 359.9152832 C-189.33411133 359.28323975 -188.67701172 358.65119629 -188 358 C-187.48121277 357.59675507 -186.96242554 357.19351013 -186.42791748 356.77804565 C-183.95413586 354.69559238 -182.21441463 353.15410691 -181.60919189 349.8964386 C-181.62523013 347.38739589 -181.83109231 344.96236187 -182.109375 342.46875 C-182.2595719 340.58102088 -182.40594537 338.69298431 -182.54882812 336.8046875 C-182.66931519 335.35884277 -182.66931519 335.35884277 -182.79223633 333.88378906 C-183.11733512 329.37137196 -183.17373606 324.86641 -183.203125 320.34375 C-183.21032562 319.46348145 -183.21752625 318.58321289 -183.22494507 317.67626953 C-183.3499677 297.58884392 -182.9493063 277.90977332 -180 258 C-179.8981842 257.30859924 -179.79636841 256.61719849 -179.69146729 255.90484619 C-175.12196717 225.05365683 -169.83355813 193.25005575 -157.91503906 164.28222656 C-156.6771509 161.1947723 -155.68143799 158.04837291 -154.6875 154.875 C-152.00923633 146.66027128 -148.63775733 138.8284035 -145 131 C-144.56236328 130.05769531 -144.12472656 129.11539063 -143.67382812 128.14453125 C-134.90911062 109.37828401 -125.55954578 91.20282566 -114 74 C-113.57074219 73.35820801 -113.14148438 72.71641602 -112.69921875 72.05517578 C-104.3021813 59.54129109 -95.5858828 47.55603242 -85.3125 36.49609375 C-83.26342081 34.28433428 -81.27800519 32.03577724 -79.3125 29.75 C-67.45768872 16.18985624 -53.01347275 4.39985381 -36 -2 C-35.10410156 -2.35578125 -34.20820313 -2.7115625 -33.28515625 -3.078125 C-22.71443286 -6.04446355 -9.7381125 -4.94911547 0 0 Z " fill="#1B1B40" transform="translate(405,247)"/>
<path d="M0 0 C6.98975161 3.18830775 12.75345868 6.44901534 16.9375 13.0625 C19.53441503 20.33708807 18.96901658 29.62461371 16.16015625 36.7578125 C9.57106817 49.49227902 -1.19204273 58.30474622 -13 66 C-13.56960449 66.37237793 -14.13920898 66.74475586 -14.72607422 67.12841797 C-64.60906055 99.55170565 -121.6499373 116.96806878 -181 116 C-181.27602051 116.87438721 -181.55204102 117.74877441 -181.83642578 118.6496582 C-187.77915534 135.76087889 -197.80728508 152.09718816 -208 167 C-208.52062012 167.76248047 -209.04124023 168.52496094 -209.57763672 169.31054688 C-217.05088226 180.15345588 -225.15932999 190.24797698 -234 200 C-234.50917969 200.56557617 -235.01835938 201.13115234 -235.54296875 201.71386719 C-245.1700043 212.38651264 -254.95693444 222.849045 -266.23828125 231.796875 C-269.11468476 234.09148827 -271.89552547 236.47864939 -274.6875 238.875 C-285.66453833 248.03201125 -297.75384394 255.66790656 -310 263 C-310.96035156 263.60585938 -311.92070313 264.21171875 -312.91015625 264.8359375 C-320.90471337 269.76394175 -329.14987951 272.9967587 -338 276 C-339.10472656 276.3815625 -340.20945312 276.763125 -341.34765625 277.15625 C-363.44736164 284.3858934 -386.35582783 285.31635914 -409 280 C-409.98589111 279.7831958 -409.98589111 279.7831958 -410.99169922 279.56201172 C-440.37100166 273.09928088 -463.20742623 260.80133499 -483 238 C-482.505 237.01 -482.505 237.01 -482 236 C-481.14019531 236.58007812 -480.28039062 237.16015625 -479.39453125 237.7578125 C-464.26786133 247.8142108 -448.53463243 254.23212552 -430.8125 258.1875 C-429.68908203 258.44724609 -428.56566406 258.70699219 -427.40820312 258.97460938 C-389.31157438 267.63191726 -353.81619811 257.80175511 -321 238 C-306.54263099 228.83387835 -292.80282429 218.62214838 -280.20703125 207.0234375 C-278.27869483 205.25551137 -276.31152022 203.56153954 -274.3125 201.875 C-263.94284484 192.81209 -254.47662264 182.84115422 -246 172 C-245.07305352 170.87144098 -244.1431866 169.74527649 -243.2109375 168.62109375 C-235.43437489 159.1875642 -228.57788842 149.29893062 -222 139 C-221.61279785 138.40348633 -221.2255957 137.80697266 -220.82666016 137.19238281 C-212.38695712 124.12958539 -205.83040406 109.94546911 -199 96 C-198.09048584 95.9906543 -197.18097168 95.98130859 -196.24389648 95.97167969 C-177.8314858 95.73489397 -160.0202308 95.16159518 -142 91 C-140.97487305 90.77070801 -139.94974609 90.54141602 -138.89355469 90.30517578 C-114.74178141 84.80688614 -91.49261584 76.33368618 -69 66 C-67.89011719 65.53335938 -66.78023437 65.06671875 -65.63671875 64.5859375 C-50.71248338 58.07762433 -37.11196624 49.60145414 -24 40 C-23.12529053 39.35949707 -23.12529053 39.35949707 -22.23291016 38.70605469 C-12.94036015 31.787347 -3.50095189 22.94621587 -1.26953125 11.1328125 C-1.10597595 9.79820121 -0.95373083 8.46215798 -0.8125 7.125 C-0.6897168 6.09246094 -0.6897168 6.09246094 -0.56445312 5.0390625 C-0.36629262 3.36052643 -0.18172213 1.68039519 0 0 Z " fill="#AFAFB1" transform="translate(934,501)"/>
<path d="M0 0 C7.6315185 2.08132323 11.8775519 8.47525011 15.75 14.9375 C32.34919689 44.9051776 23.78832118 85.3410718 14.97607422 116.65966797 C13.05344047 123.23932655 11.02105293 129.78218141 8.9375 136.3125 C8.7299408 136.96690063 8.52238159 137.62130127 8.30853271 138.29553223 C5.97880501 145.59806244 3.43983766 152.65617767 0.13989258 159.57910156 C-1.078528 162.1667774 -2.17229471 164.78845171 -3.25 167.4375 C-13.84024126 192.92532834 -25.87226429 218.26780363 -40 242 C-40.45294434 242.76634766 -40.90588867 243.53269531 -41.37255859 244.32226562 C-44.40510129 249.44673355 -47.47035401 254.55036071 -50.56396484 259.63818359 C-51.46261035 261.1161667 -52.35911992 262.59545303 -53.25244141 264.07666016 C-73.72455052 297.97533772 -98.27508226 329.34684888 -124.88671875 358.60546875 C-125.58410156 359.39566406 -126.28148437 360.18585938 -127 361 C-128.12341797 362.07701172 -128.12341797 362.07701172 -129.26953125 363.17578125 C-133.37670011 369.87890334 -130.72986609 379.04540152 -129.3125 386.375 C-129.04240112 387.7995752 -129.04240112 387.7995752 -128.7668457 389.25292969 C-125.85630228 404.23706868 -122.19394678 418.44647833 -116.35546875 432.5703125 C-115 436 -115 436 -115 438 C-124.87254626 434.64094713 -129.76807272 424.73826012 -134.18359375 415.8984375 C-141.22339946 401.16124175 -145.12293822 385.00259212 -148 369 C-148.20753906 367.85015625 -148.41507812 366.7003125 -148.62890625 365.515625 C-149.16033871 362.34932812 -149.59156403 359.18413351 -150 356 C-150.25136719 354.70835937 -150.25136719 354.70835937 -150.5078125 353.390625 C-151.06252815 348.92445281 -150.57475703 346.77822941 -147.859375 343.1015625 C-145.50772429 340.4546718 -142.99564796 337.97830242 -140.47070312 335.49804688 C-138.24972384 333.23577448 -136.28998492 330.78781329 -134.3125 328.3125 C-131.59803937 324.94115922 -128.8361013 321.65190222 -125.9375 318.4375 C-81.62965704 268.99377741 -45.80594354 206.37389547 -21 145 C-20.67563965 144.20529297 -20.3512793 143.41058594 -20.01708984 142.59179688 C-2.86999762 100.2528863 16.56100368 45.16637366 0 0 Z " fill="#AFAFB1" transform="translate(424,269)"/>
<path d="M0 0 C0.42699059 26.65078201 0.42699059 26.65078201 -2 38 C-2.19899902 38.93569824 -2.39799805 39.87139648 -2.60302734 40.83544922 C-6.30184766 57.9474014 -10.33794918 74.77805564 -17 91 C-17.35674805 91.8775293 -17.71349609 92.75505859 -18.08105469 93.65917969 C-30.29337448 123.61534495 -43.75689947 153.11047658 -60.63818359 180.76074219 C-62.1969597 183.32386417 -63.73307764 185.90000026 -65.26953125 188.4765625 C-77.48722466 208.87402806 -90.82671169 228.46178962 -105.56640625 247.125 C-106.91912197 248.89421947 -108.16104983 250.69621362 -109.375 252.5625 C-110.179375 253.7690625 -110.179375 253.7690625 -111 255 C-111.33 255 -111.66 255 -112 255 C-112.22664962 246.21103146 -111.52742039 237.61285895 -110.625 228.875 C-110.49867188 227.56917969 -110.37234375 226.26335937 -110.2421875 224.91796875 C-109.63706104 218.93326801 -108.9395063 213.11486471 -107.50537109 207.2722168 C-106.9017491 204.55825068 -106.51605443 201.84249699 -106.125 199.08984375 C-104.83778629 190.48721488 -102.9470772 182.03571552 -101 173.5625 C-100.8050293 172.71294739 -100.61005859 171.86339478 -100.40917969 170.98809814 C-93.53315987 141.29221811 -83.230585 112.98142783 -69 86 C-68.55253418 85.14760742 -68.10506836 84.29521484 -67.64404297 83.41699219 C-55.95751121 61.26298515 -42.2254017 41.10266672 -26 22 C-25.28457031 21.14921875 -24.56914062 20.2984375 -23.83203125 19.421875 C-18.43851751 13.19785561 -12.51869851 8.01991114 -6 3 C-4.91138672 2.13181641 -4.91138672 2.13181641 -3.80078125 1.24609375 C-2 0 -2 0 0 0 Z " fill="#AFAFB0" transform="translate(382,292)"/>
<path d="M0 0 C8.70465093 3.68273693 14.5457867 11.47802007 18.296875 19.91796875 C26.86847836 42.93086037 21.70113068 71.68004836 13 94 C12.72663818 94.71542969 12.45327637 95.43085937 12.17163086 96.16796875 C1.88730096 122.97995868 -11.24948809 147.60763179 -27.125 171.5 C-27.54029968 172.126716 -27.95559937 172.75343201 -28.38348389 173.3991394 C-34.24766079 182.22235384 -40.47488836 190.65448675 -47 199 C-48.63169545 201.14083082 -50.25291836 203.28935644 -51.875 205.4375 C-59.85379953 215.87293361 -68.579962 225.67259871 -77.52734375 235.28125 C-82.89904976 240.58693121 -82.89904976 240.58693121 -85.3125 247.375 C-85.209375 248.24125 -85.10625 249.1075 -85 250 C-93.28142764 245.73381 -99.14381817 238.37231424 -103 230 C-103.8984375 226.98046875 -103.8984375 226.98046875 -104 224 C-102.515625 221.6484375 -102.515625 221.6484375 -100.25 219.375 C-99.00669922 218.08722656 -99.00669922 218.08722656 -97.73828125 216.7734375 C-96.83464844 215.85820313 -95.93101562 214.94296875 -95 214 C-93.12804789 212.01622043 -91.28075079 210.01043907 -89.4375 208 C-88.96852295 207.49041748 -88.4995459 206.98083496 -88.01635742 206.45581055 C-84.55451166 202.6701907 -81.30011607 198.76973681 -78.140625 194.73046875 C-76.54440952 192.69442018 -74.93211152 190.68002629 -73.296875 188.67578125 C-55.7827218 167.15622751 -40.57932829 144.18018322 -27 120 C-26.51192871 119.13745605 -26.02385742 118.27491211 -25.52099609 117.38623047 C-24.02659658 114.74117717 -22.54265698 112.0905459 -21.0625 109.4375 C-20.61374512 108.64085937 -20.16499023 107.84421875 -19.70263672 107.0234375 C-16.6537349 101.503854 -14.23674047 95.89069777 -12 90 C-11.44170005 88.59363333 -10.88311795 87.18737863 -10.32421875 85.78125 C-3.00372735 66.82916408 3.16243227 47.20483601 3.25 26.8125 C3.270625 25.63107422 3.29125 24.44964844 3.3125 23.23242188 C3.34142506 16.70620628 2.86156263 11.15728384 0.64746094 4.99487305 C0 3 0 3 0 0 Z " fill="#AFAFB1" transform="translate(569,451)"/>
<path d="M0 0 C2.11189065 3.16783598 2.79589897 5.52826816 3.7265625 9.19921875 C4.0359375 10.40771484 4.3453125 11.61621094 4.6640625 12.86132812 C4.98117188 14.12396484 5.29828125 15.38660156 5.625 16.6875 C5.94984375 17.96173828 6.2746875 19.23597656 6.609375 20.54882812 C7.41139851 23.69794985 8.20804759 26.84833326 9 30 C7.88818359 30.8971875 7.88818359 30.8971875 6.75390625 31.8125 C2.09862302 35.57546297 -2.47151631 39.38165976 -6.875 43.4375 C-12.07605498 48.16424494 -17.58018089 52.42297643 -23.19335938 56.63916016 C-25.08892086 58.06697904 -26.97447785 59.507357 -28.859375 60.94921875 C-49.82842849 76.92931421 -72.3664958 91.07294723 -95.6875 103.375 C-96.50492676 103.80868896 -97.32235352 104.24237793 -98.16455078 104.68920898 C-107.26311175 109.37666191 -115.62921174 112.31857165 -126 111 C-130.6018437 108.82458298 -134.49598029 105.49778634 -137 101 C-137.9542261 97.69728997 -138.54907691 94.40547885 -139 91 C-138.13955078 90.94005859 -138.13955078 90.94005859 -137.26171875 90.87890625 C-119.10270144 88.64691778 -102.24140457 76.32865868 -87 67 C-85.49518066 66.08976074 -85.49518066 66.08976074 -83.95996094 65.16113281 C-71.45123685 57.58954327 -59.47325743 49.72169884 -48.03857422 40.60595703 C-45.90326769 38.92379579 -43.74051908 37.28399342 -41.56640625 35.65234375 C-34.25270221 30.16006638 -27.23077925 24.59994802 -20.5546875 18.33984375 C-17.86921563 15.88021431 -15.08843939 13.59325143 -12.25 11.3125 C-7.87884465 7.78798162 -3.84931092 4.08578736 0 0 Z " fill="#AFAFB1" transform="translate(231,657)"/>
<path d="M0 0 C2.015625 2.34375 2.015625 2.34375 4.25 5.5 C7.91271803 10.5848032 11.77013342 15.37570857 16 20 C10.58087247 25.66843364 4.2231969 30.2621253 -2 35 C-2.63067383 35.4856543 -3.26134766 35.97130859 -3.91113281 36.47167969 C-32.39700004 58.22584837 -65.06235532 71.94196622 -101.34570312 67.72753906 C-115.07636808 65.41286632 -128.56270369 58.03848341 -139 49 C-139.804375 48.3915625 -140.60875 47.783125 -141.4375 47.15625 C-144.29348023 44.75304713 -146.48673679 42.16588224 -148.8125 39.25 C-149.60269531 38.26515625 -150.39289063 37.2803125 -151.20703125 36.265625 C-151.79871094 35.51796875 -152.39039063 34.7703125 -153 34 C-152.01 33.505 -152.01 33.505 -151 33 C-148.89980731 34.15054035 -146.89900713 35.35188787 -144.875 36.625 C-137.29338448 41.19859404 -129.51278604 43.72013891 -121 46 C-120.09797852 46.26828613 -120.09797852 46.26828613 -119.17773438 46.54199219 C-105.07145613 49.5087386 -87.34538616 48.40251039 -74 43 C-72.79859375 42.59910156 -71.5971875 42.19820312 -70.359375 41.78515625 C-47.04701453 33.93009608 -26.93486006 20.31406166 -8.44238281 4.36791992 C-7.43836426 3.51290894 -7.43836426 3.51290894 -6.4140625 2.640625 C-5.8257666 2.13047852 -5.2374707 1.62033203 -4.63134766 1.09472656 C-3 0 -3 0 0 0 Z " fill="#AFAFB1" transform="translate(429,711)"/>
<path d="M0 0 C1.03280562 3.20773507 0.93369615 5.3379872 0.1796875 8.60546875 C-0.02342041 9.4984668 -0.22652832 10.39146484 -0.43579102 11.31152344 C-0.66322998 12.2605957 -0.89066895 13.20966797 -1.125 14.1875 C-1.46905884 15.65558105 -1.46905884 15.65558105 -1.82006836 17.15332031 C-4.74886133 29.43645205 -8.19554611 41.31646622 -13 53 C-13.35666748 53.87720703 -13.71333496 54.75441406 -14.08081055 55.65820312 C-26.28881673 85.6079391 -39.75037373 115.09778025 -56.625 142.74316406 C-58.21991418 145.3609529 -59.79722709 147.9890334 -61.375 150.6171875 C-66.70603422 159.47066714 -72.07653653 168.29817 -77.75 176.9375 C-78.35908203 177.87746826 -78.35908203 177.87746826 -78.98046875 178.83642578 C-79.93240414 180.26227018 -80.95865927 181.63808123 -82 183 C-82.66 183 -83.32 183 -84 183 C-83.3755492 176.70503128 -82.4500095 170.57199988 -81.1875 164.375 C-81.00864258 163.49602051 -80.82978516 162.61704102 -80.64550781 161.71142578 C-79.05765583 154.05262129 -77.19923066 146.50711221 -75 139 C-74.72671875 138.05882324 -74.4534375 137.11764648 -74.171875 136.14794922 C-69.86592098 121.42605663 -65.1106938 107.07270939 -59 93 C-58.59942383 92.07010254 -58.19884766 91.14020508 -57.78613281 90.18212891 C-43.49191413 57.26393012 -24.67603307 26.19859681 0 0 Z " fill="#EDEDED" transform="translate(378,330)"/>
<path d="M0 0 C4.15147255 3.02945294 5.53871176 6.6935588 6.5234375 11.6171875 C9.26209412 31.05715988 4.45518824 49.4364711 -1 68 C-6.59458159 67.50254365 -10.61360071 66.03203438 -15.5 63.3125 C-16.1592749 62.95019287 -16.8185498 62.58788574 -17.49780273 62.21459961 C-26.36999682 57.22956515 -33.67060386 50.98818843 -37 41 C-38.28905631 31.1709456 -33.6899497 23.16592958 -28.10546875 15.34765625 C-21.13639773 7.04438426 -11.41106891 -1.24484388 0 0 Z " fill="#ADADAF" transform="translate(706,475)"/>
<path d="M0 0 C-1.30811784 18.31364976 -8.00202259 35.66620844 -16 52 C-16.32847931 52.6757608 -16.65695862 53.35152161 -16.99539185 54.04776001 C-22.70399212 65.76563135 -28.93746577 77.03607361 -36 88 C-37.0209375 89.60681641 -37.0209375 89.60681641 -38.0625 91.24609375 C-42.148418 97.51968034 -46.52047544 103.59866214 -50.875 109.6875 C-51.73339478 110.8933374 -51.73339478 110.8933374 -52.60913086 112.12353516 C-53.14803955 112.87038574 -53.68694824 113.61723633 -54.2421875 114.38671875 C-54.7254248 115.05920654 -55.20866211 115.73169434 -55.70654297 116.42456055 C-57 118 -57 118 -59 119 C-58.38169992 112.24687835 -56.75186949 106.04980205 -54.8125 99.5625 C-54.49788818 98.50208496 -54.18327637 97.44166992 -53.85913086 96.34912109 C-43.74035953 62.62328431 -29.19185672 28.27827818 -4 3 C-3.13568359 2.10087891 -3.13568359 2.10087891 -2.25390625 1.18359375 C-1 0 -1 0 0 0 Z " fill="#ACACAE" transform="translate(525,481)"/>
<path d="M0 0 C9.92875608 4.45915372 16.87619897 15.22031892 20.81835938 25.03808594 C24.88292165 36.32795622 26.19412616 46.95988082 26.1875 58.9375 C26.18814453 60.13286377 26.18878906 61.32822754 26.18945312 62.55981445 C26.13616156 71.51945833 25.51478872 80.16824074 24 89 C25.485 89.495 25.485 89.495 27 90 C18.25607982 91.79362465 9.91469911 92.23737365 1 92 C1.2873295 90.16598192 1.58011583 88.33281856 1.875 86.5 C2.11863281 84.96859375 2.11863281 84.96859375 2.3671875 83.40625 C2.83077301 80.91090086 3.36068111 78.52675812 4 76.078125 C10.19650658 51.77809918 9.49637669 23.18658471 0 0 Z " fill="#AFAFB0" transform="translate(752,457)"/>
<path d="M0 0 C0.939734 15.17496393 -2.3148862 30.63548865 -7 45 C-12.01928935 44.50496397 -15.58023933 43.46578706 -19.9375 40.9375 C-20.89527344 40.38964844 -21.85304688 39.84179688 -22.83984375 39.27734375 C-23.55269531 38.85582031 -24.26554688 38.43429687 -25 38 C-26.18950262 28.14412118 -21.7342404 20.10766878 -16.03515625 12.3125 C-5.53209459 0 -5.53209459 0 0 0 Z " fill="#EBEBEC" transform="translate(712,498)"/>
<path d="M0 0 C3.49999233 1.64508033 6.67930267 3.671842 9.9375 5.75 C17.88272395 10.73055419 26.27901254 14.56931743 35 18 C34.731875 18.515625 34.46375 19.03125 34.1875 19.5625 C32.67650593 22.66401415 31.34427274 25.82262806 30 29 C7.58989726 12.62585616 7.58989726 12.62585616 0 2 C0 1.34 0 0.68 0 0 Z " fill="#ADADAF" transform="translate(652,570)"/>
<path d="M0 0 C0.66 0.33 1.32 0.66 2 1 C-4.6 7.6 -11.2 14.2 -18 21 C-18.66 20.67 -19.32 20.34 -20 20 C-19.20335937 19.22076172 -19.20335937 19.22076172 -18.390625 18.42578125 C-13.99731263 14.11075057 -13.99731263 14.11075057 -10 9.4375 C-7.05856773 5.85262942 -3.53907353 2.98072455 0 0 Z " fill="#9999A0" transform="translate(373,297)"/>
<path d="M0 0 C1.53656962 2.4404341 2.02089707 3.70744102 1.8125 6.625 C1 9 1 9 -2 11 C-1.125 3.375 -1.125 3.375 0 0 Z " fill="#8B8B96" transform="translate(468,589)"/>
</svg>
